<svg width="121" height="120" viewBox="0 0 121 120" fill="none" xmlns="http://www.w3.org/2000/svg">
<path d="M102.367 52.1711H73.1971C71.9522 48.9542 69.3851 46.3984 66.1072 45.1865C65.8535 45.0927 65.5968 45.0075 65.3376 44.9307C65.0612 40.1967 61.9915 35.9548 57.4514 34.2763C55.2102 33.4476 52.7968 33.304 50.5002 33.8426C48.9143 31.2456 46.0604 29.5947 42.9342 29.5947C39.8847 29.5947 37.1219 31.1285 35.5093 33.6135C34.8741 33.4902 34.2261 33.4281 33.5708 33.4281C27.9886 33.4281 23.447 37.9696 23.447 43.5519C23.447 43.8211 23.4576 44.0899 23.4788 44.3576C21.1542 45.3538 19.3254 47.255 18.4271 49.6849C18.1044 50.5573 17.9153 51.472 17.863 52.3937C14.7831 53.1831 12.5 55.9823 12.5 59.3046V59.3497C12.5 62.6858 14.802 65.4942 17.9009 66.2702V72.31C17.9009 82.9425 24.2579 92.1183 33.3706 96.2363C33.2618 96.718 33.2063 97.2131 33.2063 97.7127C33.2063 101.405 36.2105 104.41 39.9033 104.41C43.3127 104.41 46.1352 101.849 46.5482 98.5493H75.4518C75.8648 101.849 78.6873 104.41 82.0967 104.41C85.7893 104.41 88.7937 101.406 88.7937 97.7127C88.7937 97.2131 88.7382 96.718 88.6294 96.2363C97.7421 92.1183 104.099 82.9425 104.099 72.31V66.2702C107.198 65.4942 109.5 62.6858 109.5 59.3497V59.3046C109.5 55.3711 106.3 52.1711 102.367 52.1711ZM21.9806 50.9987C22.6403 49.2141 24.147 47.9099 26.0107 47.51C26.5169 47.4014 26.9568 47.0903 27.2277 46.6491C27.4987 46.2078 27.5773 45.6749 27.445 45.1742C27.3062 44.6477 27.2357 44.1017 27.2357 43.5517C27.2357 40.0587 30.0775 37.2169 33.5704 37.2169C34.3402 37.2169 35.092 37.3532 35.8045 37.6216C36.7675 37.9848 37.8443 37.5123 38.2295 36.5578C39.0076 34.6296 40.8542 33.3835 42.9338 33.3835C45.0805 33.3835 47.0025 34.7425 47.7168 36.7653C47.8882 37.2507 48.2497 37.6455 48.7182 37.8588C49.1867 38.0719 49.7219 38.0854 50.2005 37.8961C52.1054 37.1423 54.2139 37.1188 56.1374 37.83C59.618 39.1168 61.8407 42.5955 61.5421 46.2895C61.462 47.2813 62.163 48.1662 63.1468 48.3151C63.7044 48.3996 64.2585 48.5427 64.7933 48.7405C66.557 49.3926 68.021 50.6111 68.9839 52.1709H21.6875C21.7421 51.7725 21.8401 51.3792 21.9806 50.9987ZM39.9033 100.621C38.3 100.621 36.9954 99.3164 36.9954 97.7129C36.9954 97.6636 36.9965 97.6145 36.9992 97.5657C38.8547 98.0899 40.7619 98.4059 42.6998 98.5107C42.3522 99.7275 41.2301 100.621 39.9033 100.621ZM82.0967 100.621C80.77 100.621 79.6478 99.7275 79.3002 98.5108C81.2381 98.4061 83.1453 98.0899 85.0008 97.5658C85.0033 97.6147 85.0046 97.6638 85.0046 97.7131C85.0046 99.3164 83.7 100.621 82.0967 100.621ZM78.4397 94.7528L78.4353 94.753C78.3921 94.7542 78.3489 94.7551 78.3057 94.7559C78.2974 94.7561 78.2889 94.7562 78.2805 94.7564C78.2447 94.7572 78.2089 94.7576 78.1731 94.7581C78.1602 94.7583 78.1471 94.7585 78.1341 94.7587C78.1011 94.7591 78.068 94.7595 78.035 94.7597C78.0219 94.7598 78.0089 94.7598 77.9956 94.76C77.9503 94.7602 77.905 94.7604 77.8597 94.7604H44.1402C44.095 94.7604 44.0497 94.7602 44.0044 94.76C43.9913 94.76 43.9783 94.7598 43.9652 94.7597C43.9322 94.7595 43.8991 94.7591 43.8661 94.7587C43.853 94.7585 43.8402 94.7583 43.8271 94.7581C43.7913 94.7576 43.7555 94.7572 43.7197 94.7564C43.7113 94.7562 43.7028 94.7561 43.6945 94.7559C43.6513 94.7551 43.6081 94.7542 43.5649 94.753L43.5605 94.7528C31.4484 94.4442 21.6902 84.4953 21.6902 72.31V71.8517H101.518C102.565 71.8517 103.413 71.0035 103.413 69.9572C103.413 68.9108 102.565 68.0626 101.518 68.0626H21.69V66.483H100.31V72.31C100.31 84.4953 90.5518 94.4444 78.4397 94.7528ZM105.711 59.3497C105.711 61.1938 104.211 62.6941 102.367 62.6941H19.6335C17.7894 62.6941 16.2891 61.1938 16.2891 59.3497V59.3046C16.2891 57.4604 17.7894 55.9601 19.6335 55.9601H102.367C104.211 55.9601 105.711 57.4604 105.711 59.3046V59.3497Z" fill="#243138"/>
<path d="M85.5 30.25C84.3954 30.25 83.5 31.1454 83.5 32.25C83.5 33.3546 84.3954 34.25 85.5 34.25V30.25ZM104 34.25C105.105 34.25 106 33.3546 106 32.25C106 31.1454 105.105 30.25 104 30.25V34.25ZM85.5 34.25H94.75V30.25H85.5V34.25ZM94.75 34.25H104V30.25H94.75V34.25Z" fill="#243138"/>
<path d="M92.75 41.5C92.75 42.6046 93.6454 43.5 94.75 43.5C95.8546 43.5 96.75 42.6046 96.75 41.5L92.75 41.5ZM96.75 23C96.75 21.8954 95.8546 21 94.75 21C93.6454 21 92.75 21.8954 92.75 23L96.75 23ZM96.75 41.5L96.75 32.25L92.75 32.25L92.75 41.5L96.75 41.5ZM96.75 32.25L96.75 23L92.75 23L92.75 32.25L96.75 32.25Z" fill="#243138"/>
</svg>

